<svg xmlns="http://www.w3.org/2000/svg"><defs><clipPath id="a"><path d="M518.795 45.689h49.189v23.657h-49.189V45.689z"/></clipPath></defs><g clip-path="url(#a)" transform="matrix(6.12292 0 0 -6.12292 -3176.5882 424.209)" fill="#f6e8ea"><path d="M538.4872 48.8839c-.114.205-.261.31-.494.31-.245 0-.514-.179-.514-.468 0-.257.236-.392.428-.47l.22-.093c.438-.182.764-.44.764-.99 0-.598-.432-1.027-.984-1.027-.497 0-.885.393-.951.922l.388.087c-.004-.362.265-.624.596-.624.331 0 .567.297.567.642 0 .354-.265.506-.53.624l-.212.096c-.351.161-.671.375-.671.833 0 .533.442.852.907.852.343 0 .625-.179.792-.498l-.306-.196zm1.6539-2.6674h-.384v2.916h-.73v.376h1.845v-.376h-.731v-2.916zm1.3639 3.2916v-1.942c0-.538.151-1.035.743-1.035s.743.497.743 1.035v1.942h.384v-2.082c0-.725-.421-1.28-1.127-1.28s-1.127.555-1.127 1.28v2.082h.384zm2.7526-2.9162h.135c.783 0 1.461.314 1.461 1.27 0 .961-.678 1.271-1.461 1.271h-.135v-2.541zm-.384 2.916h.637c.944 0 1.727-.532 1.727-1.628 0-1.122-.768-1.663-1.74-1.663h-.624v3.291zm3.1204-3.2919h-.384v3.292h.384v-3.292zm3.2002 1.6464c0 .725-.506 1.332-1.229 1.332-.722 0-1.228-.607-1.228-1.332 0-.751.563-1.332 1.228-1.332.666 0 1.229.581 1.229 1.332m.384 0c0-.978-.722-1.715-1.613-1.715-.89 0-1.612.737-1.612 1.715 0 .943.731 1.715 1.612 1.715.882 0 1.613-.772 1.613-1.715m4.3568.013v-.131c0-.904-.596-1.598-1.457-1.598-.862 0-1.556.795-1.556 1.707 0 .947.711 1.725 1.596 1.725.478 0 .952-.231 1.254-.638l-.269-.275c-.221.323-.593.537-.968.537-.69 0-1.229-.598-1.229-1.335 0-.691.531-1.345 1.196-1.345.478 0 .992.44 1.008.978h-.796v.375h1.221zm2.1971.3057v1.327h.384v-3.291h-.384v1.579h-1.465v-1.579h-.384v3.291h.384v-1.327h1.465zm1.3119-1.9651h-.384v3.292h.384v-3.292zm.9262.3673h.294c.355 0 .726.113.726.581 0 .462-.44.559-.783.559h-.237v-1.14zm0 1.466h.098c.364 0 .661.079.661.551 0 .463-.294.541-.653.541h-.106v-1.092zm-.384 1.459h.376c.579 0 1.126-.161 1.126-.904 0-.239-.122-.519-.331-.624v-.008c.364-.071.617-.45.617-.834 0-.66-.526-.922-1.069-.922h-.719v3.292zm2.6014-2.9164h.935v-.375h-1.319v3.291h.384v-2.916zm1.5584-.3759h-.384v3.292h.384v-3.292zm-30.4262 5.4857c.946.371 2.005 1.383 2.472 2.749h-2.228v.499h2.879c-.056-.256-.214-1.012-.823-1.901.253-.216.879-.76 1.449-1.36l-.404-.436c-.175.22-.487.61-1.336 1.402-.299-.366-.895-1.027-1.713-1.383l-.296.43zm5.235 1.8831c.184-.083.544-.248.994-.65.377.517.475 1.008.514 1.195h-1.499c-.425-.628-.789-.898-1.127-1.108l-.321.385c.749.417 1.139.97 1.434 1.791l.519-.105c-.082-.193-.133-.312-.227-.487h1.825c-.112-.718-.48-2.821-3.007-3.45l-.274.454c.29.051 1.019.179 1.82.935-.428.403-.818.6-.986.687l.335.353zm2.4387-1.7318c1.615.142 2.348.665 2.904 2.492l.464-.22c-.583-1.736-1.307-2.588-3.248-2.822l-.12.55zm3.217 2.744c-.098.413-.18.6-.223.701l.348.083c.12-.265.201-.568.231-.678l-.356-.106zm-.625-.096c-.06.312-.115.495-.202.738l.352.082c.107-.275.146-.394.218-.728l-.368-.092zm-1.632-1.517c-.497.29-.994.463-1.204.532l.196.476c.16-.049.798-.252 1.205-.49l-.197-.518zm.33 1.063c-.425.23-.827.385-1.196.5l.206.481c.646-.206.968-.362 1.208-.481l-.218-.5zm6.5635-2.194c1.615.142 2.348.665 2.904 2.492l.464-.22c-.583-1.736-1.307-2.588-3.248-2.822l-.12.55zm3.217 2.744c-.098.413-.18.6-.223.701l.348.083c.12-.265.201-.568.231-.678l-.356-.106zm-.625-.096c-.06.312-.115.495-.202.738l.352.082c.107-.275.146-.394.218-.728l-.368-.092zm-1.632-1.517c-.497.29-.994.463-1.204.532l.196.476c.16-.049.798-.252 1.205-.49l-.197-.518zm.33 1.063c-.424.23-.827.385-1.196.5l.206.481c.647-.206.968-.362 1.208-.481l-.218-.5zm5.968.674c-.03.184-.112.491-.184.665l.351.068c.081-.225.12-.362.18-.646l-.347-.087zm-.45.697c.078-.193.12-.349.18-.638l-.129-.018v-.009h.257c-.072-1.993-1.01-3.124-2.617-3.492l-.27.491c.69.142 2.108.445 2.339 2.506h-2.712v.495h2.746c-.038.229-.077.366-.162.601l.368.064zm3.8989-2.0715c0-.72-.124-1.283-.622-1.686-.389-.317-.788-.398-1.653-.499l-.158.504c1.097.073 1.928.256 1.928 1.438v1.984h.505v-1.741zm-2.163-.83h-.496v2.488h.496v-2.488zm4.9217 2.7909c-.034-.151-.073-.316-.176-.582h1.847v-.453h-1.423v-.651h1.316v-.453h-1.316v-.656h1.316v-.449h-1.316v-1.027h-.462v3.236h-.163c-.287-.564-.518-.825-.651-.981l-.292.39c.468.485.742 1.213.845 1.681l.475-.055zm-1.846-1.865h-.009c-.145-.202-.262-.316-.377-.426l-.197.453c.475.477.762.999.951 1.889l.454-.083c-.06-.22-.158-.601-.369-1.054v-3.185h-.453v2.406zm4.7374.5686h2.091v.779h-2.091v-.779zm-.423 1.209h2.93v-1.641h-2.93v1.641zm2.003-3.519h.912v1.086h-.912v-1.086zm-2.412 1.508h1.666v-2.122h-.411v.188h-.846v-.22h-.409v2.154zm.409-1.508h.849v1.086h-.849v-1.086zm1.589 1.508h1.739v-2.154h-.411v.22h-.914v-.22h-.414v2.154zm-21.6042-1.2261c1.295.941 1.732 1.792 1.8 1.937l-1.823.002v.504h2.118v.767h.477v-.767h.971v-.516h-.967l.001-2.684h-.482l.001 2.282s-.387-.935-1.815-1.96l-.281.435zm-11.5861-1.5801h35.219m-35.219.029h35.219v-.058h-35.219m.3869 11.9427v-.047l-.076-.026-.208.005-.208-.009-.011.021.096.06c.139-.026.26.043.387.008l.02-.012zm-5.0024-4.6404l-.036-.043-.068-.09-.048-.055-.144-.116-.147-.097c-.096-.086-.228-.151-.384-.176l-.188-.021c-.108.012-.227.012-.315.06l-.096.03c-.127.066-.176.114-.224.252l-.004.034h-.008l-.008.107-.012.03-.02.234v.035h.004l.004.171.015.034.017.034h.008l.004.055h.003l.013.044v.157l.016.03.007.039.009.068h.008l.004.039h.004l.012.038v.026h.008l.008.046h.007l.073.137.044.056c.096.059.179.146.331.154l.176.06c.096-.005.184-.03.28-.048l.2-.097.119-.129h.008l.009-.026h.007l.036-.068c.157-.306.227-.5.256-.855l.004-.038h.008v-.111zm.303-.008l-.107.059-.032.026-.024.022-.016.068h-.009l-.011.188h-.004l-.008.05-.013.078-.015.124h-.008l-.012.06h-.004l-.016.051-.016.06-.032.094h-.008l-.019.051c-.151.369-.235.451-.62.546l-.12.039c-.128.005-.268 0-.383-.043-.092.01-.141-.042-.204-.076l-.156-.111-.045-.069-.011-.034-.048-.064-.024-.03-.012-.047h-.005l-.019-.038v-.013l-.012-.043h-.004l-.012-.064h-.008v-.021l-.008-.077h-.008l-.008-.099h-.008l-.012-.055h-.004l-.012-.072h-.004l-.004-.052h-.008v-.043h-.008l.008-.072-.08-.133h-.004l.004-.043.004-.012.076-.098h-.008v-.031l-.004-.106.012-.065.012-.068.004-.021h.008l.004-.039.016-.051.016-.034.064-.095.135-.127.128-.103c.132-.034.256-.115.416-.077.092.013.208.009.268.069l.112.021.088.025.187.099.132.099c.092.05.136.135.212.196l.072.09.028.025.164.021.047.065m-3.6152 1.1702l.012-.004h-.004v-.008h-.004l-.028-.107h-.008l-.012-.065h-.004l-.012-.08h-.004l-.008-.048-.012-.073h-.008v-.038h-.008l-.028-.056-.048.03-.003.034h.007l.008.12h.008l.012.055h.004l.004.048h.008l.008.063h.008l.02.065.008.026.016.026v.016l.008.008.036.026.024-.038zm.0959-.2734l.004-.018.008-.042h-.008l-.012-.069-.068-.02-.016.089.016.038.076.022zm.1479-.0899l.016-.026v-.068l-.028-.025-.064.059.004.038.012.01.06.012zm.2236-.1239l.008-.047-.024-.03-.067.026-.017.043.004.046h.06l.036-.038z"/><path d="M526.7296 57.9795l-.024.03-.008.064.028.013.012-.013.004-.021-.012-.073m.096.111l-.017.09h-.007l-.008.098-.024.047-.064.065c-.128.042-.168-.069-.223-.129l-.025-.034-.012-.043h-.004v-.026l-.012-.038h-.007l-.008-.175.015-.158.012-.022.088-.141.168.009.048.03.056.102h.007l.009.047c-.009.103.02.179.008.278m-3.4602-.7776l.016-.026.031-.047.009-.046-.048-.056-.228-.06-.127.064.015.034h.004l.013.052h.008l.007.047.044.056.188.038.068-.056zm4.1512-1.5127c-.164-.004-.319 0-.479 0l-.168.021-.032.03.027.013.36-.038c.1.03.196-.014.292-.018v-.008zm3.424-.411c-.147.052-.319.052-.46.107-.135.014-.26.056-.407.044l-.143.029-.136.026c-.104.021-.216.026-.328.034-.096.052-.232.018-.32.068-.16.009-.283.085-.443.065-.113.004-.204.046-.324.034-.115.034-.256.016-.371.038l-.217.017c-.151.017-.311.034-.467.017-.136.026-.279.047-.432.043l-.195.03-.036-.077h-.008l.004-.043.096-.111c.12-.033.26-.081.395-.043.108-.004.212-.02.316-.008.1-.017.204.004.3-.022l.195-.016c.128-.009.252.004.376-.017.096.025.176-.022.272-.026l.343-.026c.117-.038.256-.017.372-.047.108-.004.216-.004.316-.03l.224-.021.187-.039.168-.026c.12-.042.263-.038.384-.081l.207-.042.172.022.008.012-.048.089m-4.8542-.0975c.12-.038.271-.008.392-.064l.171-.039.108-.038c.1 0 .2-.034.303-.038l.085-.095v-.051c-.152.009-.279.069-.428.085l-.192.044c-.228.008-.419.132-.655.081l-.14.089-.015.052.151-.008.22-.018"/><path d="M530.765 54.1423c-.104-.043-.215.004-.315.017-.145.06-.316.098-.464.154v.004l-.203.034c-.105.039-.22.055-.337.073l-.183.056c-.164.073-.368.132-.539.192-.169.026-.312.089-.464.137l-.16.072.004.013c.092.009.164-.03.244-.043.116-.06.271-.076.399-.115l.132-.017c.116-.035.252-.047.356-.103.1-.025.175-.089.288-.098.136-.051.291-.081.427-.128l.252-.051c.092-.026.195-.034.28-.073l.132-.039.155-.063h.004l-.008-.022zm.224.008l-.06.069-.136.098c-.088-.004-.136.056-.224.047-.072.034-.132.082-.232.077-.156.056-.343.082-.515.116l-.184.081-.203.064-.148.059-.192.056c-.224.073-.463.099-.695.163-.1.029-.224.021-.312.067-.387.06-.743.171-1.118.249-.081.051-.209.043-.304.081l-.092.017c-.092.021-.2.026-.288.056l-.096.016-.208.065c-.099.06-.235.008-.32-.03l-.015-.021.012-.065.107.043.156-.043c.14-.017.264-.056.392-.094l.056-.021.136-.051c.119-.013.24 0 .339-.047.125-.018.228-.077.36-.047l.044-.03c.088-.004.156-.052.224-.082l-.076-.038-.06-.073.012-.008c.107-.038.22-.055.331-.094.136-.021.252-.09.396-.098.216-.073.435-.124.648-.197.103-.034.235-.051.331-.098l.084-.031c.107-.016.18-.08.292-.085.119-.034.239-.064.356-.102l.247-.065c.156-.038.324-.068.471-.119.104-.008.196.004.288-.026l.196.077v.064m-7.8194.5775l.012-.043-.028-.025-.212.017-.004.051.024.034.16.018.048-.052zm5.8294-1.5726l-.024.008-.232.103-.208.107-.203.107-.228.08c-.104.048-.228.074-.328.129-.104.03-.2.064-.279.129l-.168.055c-.084.034-.148.09-.24.111l-.124.043-.227.111-.1.069.028.034c.136-.014.228-.099.367-.116l.052-.017c.12-.052.256-.081.363-.149.093-.03.192-.069.272-.107l.192-.099.116-.064c.096-.038.204-.085.283-.141l.177-.077.115-.046.24-.133.156-.115v-.022zm.515-.222l-.119.093-.125.117-.251.175c-.108.093-.267.136-.38.23l-.156.081-.068.03-.079.048c-.092.004-.128.072-.204.089l-.164.072-.216.087-.187.072-.156.063c-.089.061-.204.091-.308.133-.103.013-.192.06-.288.081l-.011.014-.24.008-.045-.051-.011-.048h-.004l.024-.085.12-.107c.152-.056.295-.136.448-.187l.215-.09c.08-.065.211-.073.303-.12.081-.078.22-.072.313-.141.147-.017.226-.116.375-.133l.011-.012.196-.094.144-.056c.124-.035.236-.085.324-.162.092-.008.164-.06.252-.081l.083-.048.188-.02.021.029-.005.013m-4.1508-.7265h.016l.024-.034c.076-.039.139-.09.231-.111l.093-.081-.004-.048-.008-.016.087-.052c.104-.017.172-.069.264-.089l.064-.056.032-.069.02-.016.016-.039.008-.064h.008c.153-.17.238-.305.387-.47l.036-.064h.009c.105-.144.302-.3.355-.466l.044-.068c.064-.09.158-.233.184-.347l.012-.157.012-.06h.004l.02-.035.016-.119h.007l.029-.068.016-.035c.023-.088.127-.121.16-.269l.012-.026.015-.063.009-.035.012-.175.039-.103.025-.042.035-.048.089-.076.132-.133.019-.039.016-.175h-.008l-.012-.059h-.004l-.004-.06h-.007l.003-.008h-.003v-.009h.007l.004-.239.016-.214.02-.115.004-.052h.008v-.022l.005-.076.007-.043h.004l-.004-.197.044-.059-.004-.073h-.008l-.008-.06h-.008l-.004-.034h-.004l-.012-.055-.044-.044-.044.022v.06h.008l.013.081.015.081v.026h.008l-.004.051-.1.09-.008.051h.008l.013.048v.064h.004v.051h.007l-.007.077-.017.038-.012.038-.012.018-.012.055h-.008l-.003.141-.004.086h.007v.141h-.007v.153h.007v.073h.008l-.024.137h-.008l-.015.03-.081.081-.083.085-.081.103-.007.038h-.008l-.004.039-.009.102-.031.082-.009.064h-.007l-.016.094-.012.026-.016.034-.064.119h-.004l-.02.03-.036.069-.012.021-.028.039h-.008l-.016.042-.016.055-.004.04h-.008l-.012.111-.008.05-.016.167h-.008l-.016.043-.04.081-.024.052h-.004l-.02.03-.035.063h-.004l-.021.039c-.121.182-.152.268-.36.432l-.092.123h-.003l-.033.056c-.136.225-.286.223-.363.462l-.08.123h-.007l-.136.077-.2.09-.005.038h-.008l-.024.056c-.1 0-.119.085-.183.12l-.176.098-.035.111.051.021.096-.051m-2.2535-3.8501l-.008-.133h-.008l-.004-.038h-.004l-.012-.145.008-.017h-.004l-.004-.154h-.008l-.016-.06v-.013l-.048-.017-.052.021-.036.069-.015.021-.021.043-.02.056-.04.055-.004.013-.096.132-.019.022-.041.081-.004.038h-.008l-.035.06-.061.017-.032.026-.043.06-.14.119c-.096.039-.148.129-.284.115l-.164-.051v-.012l-.211.008-.004.013.004.064.164.149.083.065.124.094.112.111.128.103.1.072c.088.034.156.094.252.124l.079-.013.045-.042.043-.048.02-.043.044-.05.032-.039.016-.038.02-.078h.008l.017-.047.019-.054.016-.048h.008l.012-.059.012-.026.008-.03.028-.171h.008l.012-.21h.004l.02-.103-.008-.012h.008zm.084.103l-.008.102-.02.111h.004l-.016.103h-.008l-.008.081h-.008l-.008.038-.012.111-.016.044h-.008l-.024.093-.012.056h-.008l-.016.073-.02.038-.016.038-.016.035-.011.012-.145.133-.14.09c-.152.043-.252-.068-.339-.137l-.084-.068-.168-.073-.044-.043-.043-.043-.064-.055-.081-.064c-.087-.043-.128-.129-.207-.188l-.036-.038c-.078-.084-.146-.175-.224-.262v-.038h.008l.004-.026.056-.073c.164-.042.324.014.475.039l.172.034c.096.026.128-.051.191-.085l.093-.094.107-.073.005-.017h.008c.07-.104.167-.197.228-.308l.039-.072h.008l.008-.026.016-.029h.008l.021-.06h.007l.04-.09.02-.025.164-.086.08.042.008.009.003.039.017.188h.008v.076h-.008v.133h.008v.051h.004l.003.052h.009l.012.085h.004l.004.038h.004v.056l-.028.073m2.7369-2.6027l-.028-.03-.104.018c-.135.104-.237.245-.348.375l-.012.013c-.051.064-.167.098-.263.085l-.204.043c-.108.026-.192-.038-.292-.012l-.036.05-.004.005h.004l.004.072.028.03.049.039.051.039.156.136v.009l.044.055.12.129.076.063c.068.078.148.137.267.163l.136.013.128-.112.024-.03.016-.025.04-.102h.008l.012-.039.012-.022.02-.042.012-.064.008-.059c.027-.095-.005-.244.027-.334l.013-.069h.008l.011-.196h.005l.008-.102.012-.061-.008-.038m.132.034l-.017.167-.007.081h.004l-.012.056-.004.017-.036.167h-.004v.02h.004v.133l-.009.175h-.007l-.008.077-.012.03-.016.043h-.008l-.008.052-.012.02-.016.035h-.004l-.012.025-.036.039-.08.107-.168.149-.12.026c-.119.026-.171-.064-.267-.09v-.004l-.128-.094-.2-.197-.02-.034v-.017l-.016-.03-.016-.03-.12-.145-.111-.09-.053-.077-.019-.038-.06-.073v-.06l.023-.034c.064-.073.212-.111.324-.073l.14-.004.227-.008.004.046h.009l.004-.038h-.008l.012-.034h.024l.147-.051v-.008l.068-.061.017-.034.068-.094.015-.021.064-.086h.008l.068-.068.192-.055.164.03.028.055h.008v.098h-.008zm12.6856 9.8154l.004-.034.028-.154.012-.052.008-.076h.008l.02-.081h.008l.008-.086h.008l.008-.051h.008l.004-.034.036-.133h.004l.004-.051.016-.098h.008l.008-.068h.114l-.003.055h-.008l-.003.039-.012.072h-.009l-.011.051h-.004l-.016.052-.012.055-.008.094h-.008l-.013.051h-.003l-.016.056-.004.055-.012.022-.029.149-.003.052h-.008l-.008.055-.012.03-.016.042h-.008l-.008.056h-.008l-.012.061-.032.076-.016.051h-.008l-.02.064-.016.035-.016.034-.02.047h-.004l-.02.094h-.008l-.02.085-.016.048-.016.03h-.008l-.019.059-.017.038-.028.073-.016.043h-.007l-.021.09-.016.038h-.008l-.015.06h-.008l-.021.081-.016.03-.016.034h-.007l-.021.06-.015.055-.017.043-.032.082-.015.046-.024.061h-.008l-.004.042-.013.047-.019.09h-.005l-.012.063-.011.022-.013.038h-.008l-.011.065h-.004l-.009.034-.011.06-.016.047h-.009l-.019.064-.017.038-.064.103-.047.055-.068.099.008.076.011.052h.005l-.005.055-.039.095-.016.042h-.008l-.008.026h-.008l-.02.038h-.008l-.008.026h-.008l-.028.051c-.173.233-.267.451-.403.688l-.04.082h-.009l-.036.059c-.086.106-.164.23-.279.304l-.104.085-.144-.051.024-.069.156-.09.168-.14.076-.078.111-.111-.036-.046-.059-.06-.024-.025-.012-.014.012-.042.012-.014.163-.059v-.008h.008c.109-.131.206-.273.304-.415l.016-.038h.008l.06-.099v-.047h-.008l-.007-.056h-.009l-.044-.064-.008-.008.004-.021.052-.094.088-.091.004-.012.116-.133.02-.042h.008l.04-.099.019-.025.021-.064h.008l.012-.06.008-.064.015-.073.021-.038.024-.047h.004l.012-.052h.007l.013-.085h-.004l.008-.064h.008l.011-.051.013-.026.011-.06.017-.043.023-.034.021-.051h.007l.017-.072c.037-.103.093-.202.136-.312l.011-.069h.008l.013-.06.023-.093h.009l.007-.06h.008l.02-.073h.008l.017-.047.015-.034.021-.048.015-.042h.008l.041-.085.023-.065.016-.038h.008l.024-.068.016-.039.02-.064h.008zm-12.1463 8.0588v-.043h-.008l-.004-.038h-.004l-.012-.042-.024-.03-.068-.078-.152.052-.044.056-.023.024-.017.043-.012.026-.016.06h.009v.043h.004l.003.094.029.042.039.055.168.04.084-.082.024-.069h.008l.02-.106.004-.047h-.008zm.1.099l-.012.102-.016.029-.032.048-.004.008-.036.034-.064.061c-.068.042-.164-.005-.252.016l-.072-.055-.04-.052-.039-.089h-.004l-.013-.056h-.008v-.085h.008l.013-.116h.004l.02-.093.015-.043h.008l.028-.064.08-.014.248-.025.044.035.06.085.016.026v.008l.044.085h.008l-.004.155"/><path d="M533.0425 62.9661v-.004l-.064.064-.028.025-.068.09-.004.013-.124.116-.115.097-.14.125-.024.034h-.008l-.004.012-.024.039.164-.077c.147-.171.281-.229.411-.371l.02-.06h.008l.008-.095-.008-.008m-.096-.419l-.048.012.008.022.064.022.004-.008-.028-.048m-3.316.483l-.025.059.117.044.015-.082-.107-.021m-.788-.06l-.036-.051-.175-.116-.26-.102c-.151-.025-.255-.102-.392-.146l-.2-.055-.223-.124-.052-.029c-.143-.03-.272-.09-.379-.163l-.248-.107c-.199-.134-.39-.283-.528-.487l-.051-.055-.168.055-.045.072-.015.035-.053.064-.007.026h-.008l-.04.059-.036.068-.02.052-.032.059-.012.052h-.008l-.016.043-.004.03h-.008l-.012.068-.012.069h-.008l-.004.06-.004.2.008.064-.008.081v.15h.004l.012.051v.154h-.008v.103h.008l-.012.09h-.004l-.012.063h-.008v.086l.028.021.095.048.017.025.024.034v.077h.012v.039h.008l.003.077h.005l-.005.089-.027.132-.056.069-.084.03v.068h.004l.004.047h.008l.008.056h.008l.096.166.016.038.02.026.035.065.025.026.007.042h.009l-.012.06-.012.017-.024.038-.02.043h.004v.03h.004c-.008.111.019.209 0 .316l.008.004-.004.022h.004l-.008.115h-.008l-.008.064h-.008l-.016.077-.004.034h-.008l-.008.065h-.008l-.004.093c-.024.094-.008.235-.012.351l.007.141h.005l.012.038v.146h.008l.012.085h.004v.069l.016.008.032-.026c.053-.129.107-.257.18-.375l.031-.107h.005l.019-.069h.008l.017-.034.003-.018.008-.059.004-.004h-.004v-.124h-.008l-.011-.095.008-.004h-.008l.008-.004h-.008v-.03h.008v-.012h-.008v-.085h-.004l-.005-.091h-.008l.008-.137h-.008v-.076h-.007l-.004-.158h-.004v-.116h.008l.024-.025.083.077v.016h.004v.095l.013.145v.038h.004l-.004.115v.065h.004l.003.082h.008l.013.076v.09h.004l.004.119h.004l-.004.005h.004l.011.222h.004l.013.077v.034h.007l.012.06h.004l.012.064h.004l.012.098h.009v.137h-.009v.06h.009l-.004.004h.004l.007.06h.008l.008.069h.008l.012.055h.004l.012.046.02.018.072-.09.012-.043.024-.038.016-.03.02-.065h.004l.02-.038.012-.043.012-.03.012-.076h.004l.016-.039.012-.016.016-.039.02-.064h.008l.008-.048h.008l.019-.05.041-.069.016-.047.004-.038h.008l.008-.082h.008l.008-.123c.007-.13.014-.28.103-.381l.073-.077c.063-.072.127-.141.247-.167l.168-.111.116-.102.028-.055h.008l.016-.03c.068-.124.103-.246.184-.355l.04-.042c.228-.442.136-.223.435-.526l.044-.065.076-.149h.004l.02-.06.016-.06h.008l.02-.077h.008l.016-.034.032-.059.012-.026.004-.013.219-.106.021-.086-.021-.039m-3.108.556l-.02.034-.012.15.008.064h.004l.013.051.031.052.036.046.016-.022.02-.024-.072-.137.032-.044.036-.033.02-.014-.004-.05h-.008l-.036-.052-.064-.021m-5.861-13.003l.152.102c.107.065.224.121.331.189l.064-.044.004-.029.008-.09.017-.124h.003v-.128h-.003l-.009-.158.009-.039h.003l.016-.068.004-.055h.008l.004-.206.016-.171.016-.131.004-.006h-.004l.008-.012h-.008l.004-.008h-.004l-.008-.065-.02-.021-.028.004-.06.09-.008.018-.06.111-.047.055-.036.076h-.005l-.036.06-.019.018c-.032.067-.128.073-.217.067-.111-.012-.195-.054-.299-.08l-.132-.069-.2-.098-.056.013-.008.034h.004l.013.077.019.043.016.026v.034l.025.026.027.076h.005l.011.039c.238.334.152.092.364.35l.112.094m10.987 12.999l.013.008.055.043h.164v-.026l-.051-.043-.181-.026v.044zm6.357-3.842c-.099.09-.192.188-.267.291l-.053.166-.06.048-.023.042-.02.085-.156.21c-.095.068-.144.183-.255.235l-.132.107-.028.042.011.021.024.04v.063l-.167.133-.085.086-.211.174c-.1.048-.196.103-.316.103-.108.047-.236.06-.336.128l-.211.099-.204.131-.084.069-.012.06.224-.051.136.008.008.055-.028.039-.176.047-.184.026-.155.12.036.026.26-.048.095-.017c.088-.021.176-.064.272-.052l.147.044-.02.038c-.2.017-.367.111-.559.136l-.188.074.089.047c.115.012.215-.026.319-.026.192-.021.359-.085.527-.158l.208-.099.064.035v.068l-.052.043-.176.132c-.104-.021-.155.085-.263.065-.164.02-.324.072-.495.055l-.2.03-.028.038.028.026.163.012c.088.014.176.014.268.022.136.021.295.013.431-.013l.024.017v.043c-.183.081-.391.034-.591.052l-.24-.014-.024.03.176.099c.104.059.24.068.336.145.096.043.207.047.311.055l.204.146.016.029.053.099.043.072.012.077h.004l.004.056.004.051.012.137.004.137.012.004-.012.09.012.051v.171l-.008.008c-.004.086 0 .214-.004.325l.02.052-.008.089.008.159.008.111.008.004c0 .107.004.205.008.308l-.008.046c-.028.148-.005.552-.036.722l-.016.095c.008.094-.016.171-.008.265l-.016.038.008.094-.008.004-.008.175-.012.034-.016.03v.099l-.007.004-.013.125-.028.059-.008.086-.012.089-.008.111v.218l-.012.004.008.009-.008.004.008.06h-.004l-.004.141-.008.005-.007.131c-.052.274-.067.547-.157.812l-.035.111c-.044.099-.049.248-.121.33l-.079.043-.213-.048-.023-.047-.032-.034-.032-.055-.032-.038-.052-.091-.072-.145-.068-.145-.04-.068-.044-.081-.027-.035-.025-.038c-.039-.103-.124-.171-.179-.261l-.037-.065-.079-.119c-.275-.517-.532-1.036-.799-1.551l-.028-.051-.016-.052c-.161-.711-.429-1.173-.759-1.816l-.009-.038-.036-.059.02-.056.016-.24c.06-.093.152-.175.22-.26l.084-.111c.039-.139.173-.256.16-.411v-.046l-.1.05-.132.103c-.076.09-.187.163-.304.21-.047.042-.087.137-.179.094l-.036-.068-.036-.026-.056-.073c.107-.111.26-.188.375-.29l.156-.137.152-.171.132-.09.012-.042.012-.06-.012-.03-.032-.026-.08.043-.16.128-.107.098c-.088.073-.196.116-.288.188l-.145-.03.096-.093c.089-.078.205-.116.296-.189l.028-.055-.043.008c-.185.018-.352.085-.54.107-.092-.004-.16.06-.256.047-.111.06-.252.026-.363.082l-.017.02-.055.031c-.124-.021-.244-.017-.371-.026l-.085.017-.143.065.007.097c.016.116.168.044.228.12.125.004.208.103.332.103l.032.064-.188.021.008.018.036.034.199.077-.019.038-.084-.013-.148-.06c-.107.005-.2-.017-.307-.021l-.073.047-.079-.108c-.027-.065.044-.102-.016-.26l-.024-.183-.121-.03c-.127-.026-.255-.017-.379-.047l-.207-.03-.037.133-.004.076.013.085.007.004-.007.18.007.026-.007.03.007.077.021.038.008.068.007.081.008.06-.012.035-.02.09-.023.055-.005.111-.2.133-.127.098c-.089.171-.075.279-.032.462l.016.038.028.055c.061.162.122.32.164.487l.011.073.049.223h.004l.004.042.015.085c.078.257.184.496.269.748l.023.056.008.043c.225.633.408.808.736 1.324l.143.175.096.09.044-.042c.053-.187.084-.379.12-.568l-.008-.24-.008-.004.024-.052c.024-.187.047-.373.056-.56l.004-.149c.026-.122.036-.164.055-.295l.017-.046v-.125l.008-.004c-.008-.111.016-.197.008-.308l.008-.059.019-.056v-.154l-.015-.072-.004-.107-.008-.034-.008-.107-.008-.008-.004-.103.004-.107.008-.026.016-.038.008-.129.011-.038.017-.038.008-.073.015-.043.009-.184h-.004l-.009-.085-.071-.171c-.076-.098-.188-.192-.336-.188l-.207-.099-.104-.102-.009-.059.02-.03.004-.065.045-.026c.087.026.179.039.268.069l.131.026.144.026-.204.064-.088-.005-.008.026.2.107c.088.056.172.115.247.187l.041.073c.076.078.051.252.048.354v.073l-.012.06-.017.065v.32l-.007.004-.021.069v.26l.013.004v.094l.008.159-.008.047-.02.064v.282l.007.004-.007.039c.021.235-.044.458-.053.687l-.008.064c-.052.152-.001.201-.059.321l-.008.103-.02.06c.012.093-.012.17-.005.268l-.011.077c-.031.389-.095.368-.144.646l-.02.055-.172.004-.083-.093-.132-.125-.013-.016-.007-.048-.025-.042-.055-.073-.109-.175-.083-.103c-.155-.138-.166-.305-.32-.491l-.008-.047-.024-.055c-.082-.274-.227-.508-.288-.765l-.044-.091-.007-.046-.025-.06-.019-.025c-.087-.315-.185-.394-.22-.757l-.012-.09-.016-.03c-.012-.252-.264-.586-.164-.82l.02-.052.024-.046.052-.09c.06-.102.192-.111.284-.184l.083-.069-.071-.14-.121.051c-.123.022-.207.111-.307.163l-.228.077-.087-.039.104-.09c.096-.008.187-.042.247-.107l-.084-.081-.06-.076.224-.014c.104-.03.236-.008.319-.093l-.019-.064-.252-.022-.119-.043-.017-.03.147.008.221-.008.011-.089-.051-.056c-.1-.022-.204-.034-.3-.06l-.028-.055.056-.018.232.069.083-.021v-.086l-.079-.085-.18-.09-.223-.09-.164-.094-.092-.008.007.094.008.051-.012.056-.015.047-.116.06-.204.038-.008.039-.016.059-.072.197-.012.021-.036.069c-.036.127-.14.2-.224.29l-.152.12c-.258.331-.265.492-.479.795l-.192.175c-.152.055-.3.128-.395.252l-.008.055-.008.056-.02.055-.004.129-.021.072v.013l.008.09-.015.042-.017.035-.015.068-.021.026-.023.085-.02.026-.025.064-.043.068-.021.068-.003.056-.024.043-.068.179-.072.125-.02.059-.016.056-.02.038-.032.09-.02.033-.087.022-.057-.055c-.104-.152-.125-.694-.163-.829l-.04-.017-.053.093c-.07.154-.12.273-.175.428l-.088.116-.064-.014-.02-.055-.016-.082-.012-.055-.016-.098-.016-.06-.012-.2-.008-.005v-.094l-.016-.085v-.205l.008-.004-.008-.026v-.171l.008-.005.008-.132c.028-.094.054-.183.08-.278l-.012-.089c.012-.111-.012-.206-.004-.317l.008-.068h.003v-.129c-.234-.414-.162-.297-.223-.645l-.003-.132-.013-.009.013-.067c.002-.136.033-.298.047-.445l.017-.069c0-.098-.009-.153-.005-.256l-.012-.004-.008-.064c-.037-.2-.051-.404.025-.599l.032-.141h.003l.024-.09.072-.17.044-.09.068-.124-.104-.124-.088-.098-.064.017-.004-.013-.024.013-.084-.072-.02.072.009.089-.06.035-.072-.107-.045-.111-.024-.047c-.165-.127-.221-.38-.351-.556l-.044-.059-.016-.048c-.052-.132-.123-.251-.183-.379l-.064-.103-.028-.078-.029-.038c-.22-.322-.355-.693-.411-1.089l-.02-.06-.008-.124h-.004l-.005-.043-.007-.042-.016-.039-.008-.111-.02-.038-.124-.175-.112-.065-.152-.068c-.196-.034-.379-.111-.559-.175l-.072-.055c-.128-.005-.191-.103-.276-.167v-.013l-.024-.039-.007-.063-.029-.056-.007-.133v-.081l.007-.056.012-.063-.004-.116-.04-.086-.075-.183-.028-.115-.008-.018-.064-.133-.053.01-.135-.004v.004l-.116.055-.156-.034.008-.06.056-.03.219-.064.16-.077.025-.047.02-.077v-.141l-.009-.039-.027-.038c-.12-.016-.232-.051-.344-.077-.144-.038-.264-.111-.404-.157l-.224-.103-.003-.056.024-.06.203.06.249.119c.159.044.303.133.475.151l.024-.039.012-.052-.012-.064-.016-.038-.008-.047-.021-.034-.015-.064-.008-.065-.016-.029-.021-.064-.159-.111-.06-.086.212.022.088-.086.008-.094.016-.043.016-.051.02-.03.008-.089.015-.039.013-.06.015-.038.017-.052.028-.043-.02-.06c-.08-.038-.168-.076-.264-.085l-.148-.055-.06-.052-.016-.068.016-.111.012-.038-.012-.004-.084-.116-.068-.146-.055-.097-.113-.155-.128-.068-.179-.17-.06-.082-.012-.034-.016-.039-.025-.042-.155-.133-.056-.103c-.04-.123-.179-.17-.239-.277-.029-.094-.149-.102-.189-.184-.103-.064-.167-.158-.259-.23l-.148-.116-.143-.068.059-.103-.087-.12c-.096-.059-.164-.132-.224-.218l-.068-.085.007-.038.032-.107-.015-.026-.145-.166-.043-.06-.068-.111-.012-.06.02-.034-.008-.073-.084-.119-.048-.078-.044-.063-.004-.06-.02-.077-.024-.077-.151-.175-.032-.048-.017-.042-.119-.171-.045-.103-.007-.025-.012-.064-.017-.043-.015-.06-.013-.107-.004-.153-.011-.026.015-.056-.1-.124c-.065-.217-.086-.169-.147-.32l.015-.026c.068-.121.019-.439-.043-.564l-.004-.081.04-.026.036.064.016.077.008.069.02.034.016.046.016.069-.008.154.016.047.019.056.025.051.052.068v.06l-.005.055.013.039.139.171.089.094.023.039v.016l-.068.116.024.017c.104.034.2.103.316.111.112.052.236.167.372.094l.203-.162.044-.065.017-.046.015-.043.148-.141.144.021.072.116.016.059.016.056.02.047v.286l-.013.078-.007.059-.008.107h-.008v.572l-.016.052-.02.047-.008.042-.064.116-.24-.047-.04-.035-.207-.111c-.085-.042-.145-.132-.24-.137l.036.103.032.086.016.064.007.081c.089.055.153.141.245.196l.015.039-.087.009-.06-.013.023.038.152.171c.116.056.16.159.248.235l.032.12-.1.008v.022c.36.312.322.512.855.854l.216.218c.088.004.1.094.168.125.123.149.336.187.499.307.148.09.316.132.492.166l.264.069.131.026.008-.095.061-.02c.123-.069.267-.129.422-.116.089.034.232.051.3-.021.1-.026.152-.111.26-.125l.168-.056.164-.127.131-.115c.072-.082.192-.111.256-.206l.157-.102.139-.077c.1-.047.168-.133.276-.171l.084.018-.052.11-.2.103-.247.154c-.105.06-.209.132-.288.209l-.189.162-.207.15c-.104.017-.196.077-.296.107-.079.025-.143.081-.232.098l-.199.009-.176.077c-.092-.022-.096.081-.176.093-.1.009-.208.022-.312.009-.107.013-.179-.09-.284-.043-.087-.004-.163-.047-.247-.051-.112-.043-.215-.085-.311-.154l-.156-.081-.168-.039.008.056c.06.111.192.145.279.24l.037.004.107.123.016.052.02.029.072.086.108.158.144.137.036.086.055.081.021.076c.075.069.192.065.284.099l.019.034-.06.094.037.116c-.087.324-.247.472-.205.884l.021.039.007.059.017.047.008.055.02.048v.093l.016.073.016.133.019.042v.099l-.019.051-.016.06.007.052.017.081-.004.05h.004l.004.052c.114.199.052.173.124.316l.1.124-.028.086-.025.102-.011.223.099.238.14.038.179-.101c.117-.022.173-.133.253-.189l.02-.034.059-.098.028-.072-.011-.018v-.128l.036-.039.103.034v.176l-.024.064-.019.056-.036.068c-.064.077-.132.158-.22.214l-.057.047-.159.106.156.099.06-.022.007-.042c.093-.099.181.068.292.038l.028-.056v-.047l.084-.004.267-.017c.113-.064-.063-.085-.043-.162l.228-.073-.012-.038-.024-.038.008-.039.135-.048.045.039-.105.102.021.077.007.005-.007.029-.14.193-.04.055-.132.048-.096.077.016.119.212.171.059-.03.06.022.008.025.009.146.015.025.008.072.021.078.007.063.017.026.011.069.017.042-.013.069-.06-.043-.015-.038-.008-.06-.017-.047-.035-.154-.02-.055-.005.038.017.051v.112l.008.004.007.175.017.051c.051.188.05.402.168.56l.071.137.08.192c.164.282.326.689.491.953l.061.115.052.052-.004-.107.048-.038.047.093.06.145.024.048.029.042.06.021.059-.067.092.042.148.192.016.026.016.038.116.115.228-.03.011-.02.021-.082.124.056c.064.098.155.175.227.265.128.111.236.23.391.315l.04-.008.145.022c.1.093.252.127.363.2.08.073.204.099.304.15.088.043.192.043.275.085.152.039.268.133.408.18.116.022.2.103.323.098.113.021.217.077.332.09.109.013.208.068.316.051l.151.039c.096.046.205.03.313.042.087.03.192.026.283.043.12.043.228-.034.348-.021.343.038.687-.022 1.01-.082.132-.038.284-.021.416-.063l.1-.014.116-.016.06-.081-.012-.044.119-.111-.143-.072-.004-.043c.083-.056.204-.021.303-.03l.18-.012.18.008.06-.085.072-.013.024.038.008.064.016.099c.074.225.038.534.08.739v.192c-.512 1.09-.672.485-.132 1.606l.028.073c.006.217.221.438.223.616l.013.081.028.051.012.077h.008l.003.035c.339 1.026 1.045 2.066 1.559 2.999l.112.149.155-.017.017-.217.008-.004.02-.073.023-.056.017-.043.019-.064.009-.077.015-.09.012-.115.016-.064v-.107l.008-.008.012-.158h.005l.007-.141c.027-.057.047-.203.072-.24v-.116l.008-.004V67.2l.009-.008.007-.056.016-.043.013-.06.015-.107v-.153l.017-.043.011-.09.016-.068.008-.089.02-.026-.012-.025.012-.095.004-.252.012-.004.008-.235.012-.095h.005l-.009-.012c-.004-.202.049-.414.032-.542l-.004-.176-.012-.004v-.098l-.016-.069v-.119l-.008-.004-.008-.142.008-.132v-.244l-.02-.056.012-.063v-.112l-.012-.008v-.141l-.004-.094-.02-.051-.008-.085-.016-.061-.028-.09c-.076-.119-.232-.162-.383-.166-.088.004-.148-.064-.228-.076-.092-.044-.2-.052-.303-.077-.104-.04-.192-.12-.249-.21l-.019-.047c.023-.541-.241-.772-.244-1.06l.043-.039.105.077.019.034.017.052.143-.038c.116-.026.204-.09.288-.159.168-.093.323-.218.515-.264l.072-.03c.092-.013.164-.065.256-.081.12-.082.279-.115.375-.227l-.011-.055-.136-.022-.068-.051.176-.103.28-.158c.155-.051.264-.166.351-.277l.02-.056-.032-.018c-.08.03-.168.069-.26.06l-.079-.055.111-.06c.156-.034.304-.111.404-.213l.156-.154.143-.15.108-.119.096-.107h.048l-.032.081"/><path d="M526.4775 63.9169l.016-.026.004-.115.004-.068-.008-.009-.1-.03-.036.026-.02.043-.036.119.029.034v.014l.043.02.104-.008z"/></g></svg>